<svg width="22" height="29" fill="none" xmlns="http://www.w3.org/2000/svg"><path d="M21.267 6.59H17.6v-.658C17.6 2.655 14.645 0 11 0 7.355 0 4.4 2.655 4.4 5.932v.659H.733C.33 6.59 0 6.886 0 7.25v19.773C0 28.115.985 29 2.2 29h17.6c1.214 0 2.2-.885 2.2-1.977V7.25c0-.364-.328-.66-.733-.66Zm-15.4-.658c0-2.548 2.298-4.614 5.133-4.614s5.133 2.066 5.133 4.614v.659H5.867v-.66Zm14.666 21.09c0 .365-.328.66-.733.66H2.2c-.405 0-.733-.295-.733-.66V7.91H4.4v1.977c0 .365.329.66.733.66.405 0 .734-.295.734-.66V7.91h10.266v1.977c0 .365.328.66.734.66.405 0 .733-.295.733-.66V7.91h2.933v19.114Z" fill="#FFFDFB"/></svg>