<svg width="28" height="28" fill="none" xmlns="http://www.w3.org/2000/svg"><path fill-rule="evenodd" clip-rule="evenodd" d="M20.5 6.5c0 2.567-2.478 5-6 5s-6-2.433-6-5 2.478-5 6-5 6 2.433 6 5Zm1.5 0c0 3.59-3.358 6.5-7.5 6.5C10.358 13 7 10.09 7 6.5S10.358 0 14.5 0C18.642 0 22 2.91 22 6.5Zm4.5 21.446V28H28v-.054C28 20.184 21.732 16 14 16S0 20.184 0 27.946V28h1.5v-.054c0-3.433 1.365-5.984 3.535-7.71C7.242 18.479 10.387 17.5 14 17.5c3.613 0 6.758.98 8.965 2.736 2.17 1.726 3.535 4.277 3.535 7.71Z" fill="#FFFDFB"/></svg>